<svg viewBox="0 0 116 40" xmlns="http://www.w3.org/2000/svg">
<path d="M6.94033 6.42031L6.93032 9.90461L12.2139 9.9198C14.4416 9.9262 16.163 10.4928 17.3784 11.6197C18.6128 12.7276 19.2273 14.2335 19.2218 16.1375C19.216 18.1557 18.5546 19.7151 17.2377 20.8156C15.9208 21.9162 14.0914 22.4631 11.7495 22.4563L2.49607 22.4297L2.55353 2.43786L17.8902 2.48194L17.8787 6.45175L6.94033 6.42031ZM11.7464 13.5741L6.91981 13.5603L6.9057 18.4726L11.7609 18.4865C13.7981 18.4924 14.8192 17.648 14.8241 15.9535C14.8286 14.3732 13.8027 13.5801 11.7464 13.5741ZM22.8282 22.4882L22.8857 2.49629L31.0538 2.51977C33.4147 2.52656 35.2788 3.16975 36.646 4.44937C38.0132 5.72898 38.6938 7.41598 38.6878 9.51036C38.6814 11.738 37.9148 13.4685 36.3881 14.7017C34.8614 15.9159 32.9271 16.5196 30.5852 16.5129L27.2437 16.5032L27.2264 22.5008L22.8282 22.4882ZM27.2549 12.5906L30.7392 12.6006C31.8245 12.6037 32.6726 12.3205 33.2835 11.7511C33.9134 11.1817 34.2297 10.44 34.2324 9.52612C34.2352 8.55509 33.9231 7.81163 33.2963 7.29574C32.6695 6.76082 31.7944 6.49175 30.6711 6.48852L27.2725 6.47875L27.2549 12.5906ZM59.1843 2.60062L59.1268 22.5925L54.7858 22.58L54.8234 9.47106L46.0464 22.5549L41.9053 22.543L41.9627 2.55112L46.3038 2.5636L46.2661 15.6726L55.1003 2.58888L59.1843 2.60062ZM61.8133 26.77L61.8367 18.6304L63.7217 18.6359C64.5075 16.8293 65.0747 14.9174 65.4232 12.9002C65.7717 10.8829 65.9507 8.23688 65.9601 4.96202L65.9668 2.62011L80.5038 2.66189L80.4577 18.684L82.8567 18.6908L82.2622 26.8288L78.5779 26.8182L78.5899 22.6484L66.0807 22.6125L65.7831 26.7814L61.8133 26.77ZM76.0941 6.61907L70.1823 6.60208L70.1764 8.62982C70.1656 12.3997 69.5562 15.7395 68.3484 18.6491L76.0595 18.6713L76.0941 6.61907ZM101.681 22.7148L97.3118 22.7022L97.327 17.3901L94.6792 14.5265L89.0294 22.6784L83.7744 22.6633L91.7181 11.3478L84.1175 2.67228L89.3439 2.6873L97.3424 12.0494L97.3692 2.71037L101.739 2.72292L101.712 12.062L109.764 2.74599L114.991 2.76101L107.34 11.3927L115.219 22.7537L109.964 22.7386L104.332 14.5542L101.697 17.4027L101.681 22.7148Z" fill="white"/>
<path d="M0.979181 37.0174L0.993728 31.9562L1.74752 31.9584L1.73601 35.9623L4.75289 31.967L5.4871 31.9692L5.47255 37.0303L4.71876 37.0281L4.73027 33.0243L1.7036 37.0195L0.979181 37.0174ZM7.15497 37.0352L7.16952 31.974L7.92331 31.9762L7.91703 34.1592L10.8343 34.1676L10.8406 31.9845L11.5944 31.9867L11.5798 37.0479L10.826 37.0457L10.8324 34.8333L7.91512 34.8249L7.90876 37.0373L7.15497 37.0352ZM13.2638 37.0527L13.2784 31.9915L15.7258 31.9986C16.2283 32 16.6293 32.1154 16.9289 32.3447C17.2284 32.574 17.3777 32.8811 17.3765 33.2662C17.375 33.8079 17.0932 34.1954 16.5313 34.4287C17.2747 34.6332 17.6455 35.0519 17.6437 35.685C17.6425 36.1092 17.4751 36.4448 17.1415 36.6918C16.808 36.9389 16.3606 37.0616 15.7993 37.06L13.2638 37.0527ZM14.0195 36.4088L15.7033 36.4136C16.0622 36.4146 16.3463 36.3404 16.5556 36.1909C16.7649 36.0414 16.8699 35.8329 16.8707 35.5653C16.8714 35.3173 16.761 35.1244 16.5395 34.9867C16.3245 34.8491 16.0147 34.7796 15.6101 34.7785L14.0242 34.7739L14.0195 36.4088ZM14.0259 34.167L15.5825 34.1715C15.8957 34.1724 16.1439 34.1045 16.327 33.968C16.5167 33.825 16.6119 33.6229 16.6127 33.3619C16.6133 33.1465 16.5257 32.9733 16.3499 32.8423C16.174 32.7112 15.9262 32.6453 15.6064 32.6443L14.0303 32.6398L14.0259 34.167ZM21.2119 37.193C20.5006 37.191 19.9009 36.9445 19.4128 36.4536C18.9313 35.9562 18.6916 35.3192 18.6939 34.5426C18.696 33.8051 18.9295 33.1825 19.3943 32.6748C19.8591 32.1606 20.4375 31.9044 21.1292 31.9064C21.8537 31.9085 22.4273 32.1647 22.85 32.675C23.2727 33.1852 23.483 33.8254 23.4808 34.5955C23.4805 34.6934 23.477 34.7815 23.4703 34.8598L19.4566 34.8483C19.5073 35.364 19.6986 35.7757 20.0306 36.0834C20.3691 36.3846 20.77 36.5359 21.2334 36.5372C21.8404 36.5389 22.3729 36.3023 22.8312 35.8271L23.2998 36.2494C22.7302 36.8809 22.0343 37.1954 21.2119 37.193ZM19.4583 34.2413L22.7182 34.2507C22.6739 33.7611 22.5119 33.356 22.2322 33.0354C21.9591 32.7083 21.5843 32.5441 21.1078 32.5427C20.6771 32.5414 20.3079 32.7003 20.0002 33.0192C19.6926 33.3381 19.5119 33.7455 19.4583 34.2413ZM27.0739 37.2099C26.3429 37.2078 25.7269 36.9482 25.2259 36.4312C24.7314 35.9077 24.4852 35.2837 24.4872 34.5593C24.4893 33.8348 24.7391 33.2155 25.2366 32.7014C25.7406 32.1807 26.3581 31.9215 27.0891 31.9236C27.8722 31.9258 28.5468 32.228 29.1129 32.83L28.6317 33.3377C28.1633 32.8403 27.6451 32.5908 27.0774 32.5892C26.5683 32.5877 26.137 32.779 25.7835 33.1631C25.4365 33.5406 25.2622 34.0067 25.2606 34.5615C25.259 35.1097 25.4339 35.5768 25.7852 35.9629C26.1431 36.3425 26.5863 36.533 27.115 36.5345C27.6566 36.5361 28.1664 36.283 28.6443 35.7753L29.1423 36.2369C28.553 36.8878 27.8635 37.2121 27.0739 37.2099ZM31.6096 37.1054L31.6222 32.71L29.8111 32.7048L29.8131 32.0391L34.1987 32.0517L34.1968 32.7174L32.3858 32.7122L32.3731 37.1076L31.6096 37.1054ZM35.2806 37.116L35.2952 32.0548L36.049 32.057L36.0374 36.0609L39.0543 32.0656L39.7885 32.0677L39.774 37.1289L39.0202 37.1267L39.0317 33.1228L36.005 37.1181L35.2806 37.116ZM45.8189 38.4091L45.8225 37.1463L41.4564 37.1337L41.4709 32.0726L42.2247 32.0747L42.2121 36.4702L45.0511 36.4784L45.0637 32.0829L45.8175 32.0851L45.8048 36.4805L46.5684 36.4827L46.4454 38.4109L45.8189 38.4091ZM47.6035 37.1514L47.6181 32.0902L48.3718 32.0924L48.3603 36.0963L51.3772 32.101L52.1114 32.1032L52.0969 37.1643L51.3431 37.1622L51.3546 33.1583L48.3279 37.1535L47.6035 37.1514ZM57.9809 36.5253C57.4703 37.0394 56.8398 37.2954 56.0893 37.2933C55.3388 37.2911 54.713 37.0315 54.2119 36.5145C53.7174 35.9975 53.4712 35.3735 53.4733 34.6426C53.4754 33.9181 53.7284 33.2989 54.2324 32.7847C54.743 32.2641 55.3735 32.0048 56.1241 32.007C56.8746 32.0092 57.5004 32.2687 58.0014 32.7858C58.5025 33.3028 58.7519 33.9268 58.7498 34.6577C58.7477 35.3822 58.4914 36.0047 57.9809 36.5253ZM56.1108 36.6178C56.6525 36.6194 57.0968 36.4314 57.4438 36.0539C57.7973 35.6764 57.9749 35.2102 57.9765 34.6555C57.978 34.1073 57.7966 33.6401 57.4323 33.254C57.0744 32.868 56.6312 32.6742 56.1026 32.6726C55.5609 32.6711 55.1165 32.8623 54.7695 33.2464C54.4225 33.6239 54.2483 34.0901 54.2467 34.6448C54.2451 35.193 54.4232 35.6601 54.7811 36.0462C55.1389 36.4258 55.5822 36.6163 56.1108 36.6178ZM60.108 37.1873L60.1226 32.1262L60.8764 32.1283L60.8701 34.3114L63.7874 34.3198L63.7936 32.1367L64.5474 32.1389L64.5329 37.2001L63.7791 37.1979L63.7855 34.9855L60.8682 34.9771L60.8618 37.1895L60.108 37.1873ZM66.2169 37.2049L66.2315 32.1437L66.9852 32.1459L66.979 34.329L69.8962 34.3373L69.9025 32.1543L70.6563 32.1565L70.6418 37.2176L69.888 37.2155L69.8943 35.003L66.9771 34.9946L66.9707 37.2071L66.2169 37.2049ZM72.3258 37.2225L72.3403 32.1613L73.0941 32.1635L73.0887 34.0626L74.4396 34.0665C75.027 34.0682 75.5063 34.1968 75.8776 34.4524C76.2489 34.7015 76.4338 35.0806 76.4323 35.5896C76.4309 36.0921 76.2568 36.493 75.91 36.7922C75.5633 37.0849 75.0995 37.2304 74.5186 37.2288L72.3258 37.2225ZM73.0815 36.5589L74.452 36.5629C74.8371 36.564 75.1342 36.4833 75.3436 36.3207C75.5594 36.1582 75.6678 35.9203 75.6687 35.607C75.6695 35.3198 75.5592 35.1009 75.3377 34.9501C75.1228 34.7929 74.8195 34.7137 74.428 34.7126L73.0868 34.7087L73.0815 36.5589ZM77.338 37.2369L77.3525 32.1757L78.1063 32.1779L78.0918 37.239L77.338 37.2369ZM79.7731 37.2439L79.7876 32.1827L80.5414 32.1849L80.5299 36.1888L83.5468 32.1935L84.281 32.1956L84.2664 37.2568L83.5126 37.2546L83.5241 33.2507L80.4975 37.2459L79.7731 37.2439ZM82.9233 31.1344C82.6746 31.3556 82.3708 31.4657 82.0119 31.4647C81.6529 31.4636 81.3465 31.3518 81.0926 31.1292C80.8453 30.9066 80.6927 30.619 80.635 30.2664L81.1542 30.1602C81.2834 30.6174 81.5699 30.8467 82.0137 30.8479C82.4575 30.8492 82.7453 30.6216 82.8771 30.1651L83.3956 30.2743C83.3359 30.6266 83.1784 30.9133 82.9233 31.1344ZM91.9238 38.8451L91.9295 36.8676C91.5239 37.2124 91.1024 37.3841 90.6651 37.3829C90.0517 37.3811 89.5563 37.1447 89.1792 36.6737C88.802 36.1962 88.6146 35.5463 88.617 34.724C88.6193 33.9147 88.8104 33.2757 89.1903 32.8069C89.5702 32.3381 90.0668 32.1046 90.6803 32.1063C91.1176 32.1076 91.538 32.2915 91.9416 32.6582L91.948 30.4262L92.7116 30.4284L92.7052 32.6604C93.1108 32.296 93.5323 32.1145 93.9696 32.1158C94.5896 32.1176 95.0882 32.3572 95.4653 32.8347C95.8425 33.3057 96.0299 33.9491 96.0276 34.7649C96.0252 35.5741 95.8309 36.2164 95.4444 36.6917C95.0646 37.1605 94.5679 37.3941 93.9544 37.3923C93.6738 37.3915 93.4422 37.3484 93.2597 37.263C93.0838 37.1712 92.8949 37.0401 92.6931 36.8698L92.6874 38.8473L91.9238 38.8451ZM90.8237 36.7176C91.2479 36.7188 91.6171 36.5535 91.9313 36.2215L91.9398 33.2847C91.6275 32.9509 91.2592 32.7835 90.835 32.7822C90.3651 32.7809 90.0089 32.9561 89.7664 33.3078C89.5239 33.6595 89.4018 34.1454 89.4 34.7654C89.3963 36.0641 89.8709 36.7149 90.8237 36.7176ZM93.8095 36.7262C94.7623 36.7289 95.2406 36.0744 95.2444 34.7626C95.2462 34.1491 95.1268 33.6691 94.8863 33.3225C94.6459 32.9694 94.2907 32.7922 93.8208 32.7908C93.3966 32.7896 93.0241 32.955 92.7034 33.2869L92.6949 36.2237C93.0138 36.5575 93.3853 36.725 93.8095 36.7262ZM101.632 36.6508C101.121 37.1649 100.491 37.4209 99.7404 37.4187C98.9899 37.4166 98.3641 37.157 97.8631 36.64C97.3686 36.1229 97.1223 35.499 97.1244 34.768C97.1265 34.0436 97.3796 33.4243 97.8836 32.9102C98.3941 32.3895 99.0247 32.1303 99.7752 32.1325C100.526 32.1346 101.152 32.3942 101.653 32.9112C102.154 33.4283 102.403 34.0522 102.401 34.7832C102.399 35.5076 102.143 36.1301 101.632 36.6508ZM99.762 36.7433C100.304 36.7449 100.748 36.5569 101.095 36.1793C101.448 35.8018 101.626 35.3357 101.628 34.781C101.629 34.2328 101.448 33.7656 101.083 33.3795C100.726 32.9934 100.282 32.7996 99.7537 32.7981C99.212 32.7965 98.7677 32.9878 98.4207 33.3718C98.0737 33.7494 97.8994 34.2155 97.8978 34.7702C97.8962 35.3185 98.0744 35.7856 98.4322 36.1717C98.7901 36.5512 99.2333 36.7418 99.762 36.7433ZM103.759 37.3128L103.774 32.2516L104.528 32.2538L104.521 34.4369L107.439 34.4452L107.445 32.2622L108.199 32.2644L108.184 37.3255L107.43 37.3234L107.437 35.1109L104.519 35.1025L104.513 37.315L103.759 37.3128ZM109.12 38.5911L109.126 36.6625L109.674 36.6641C110.127 35.8366 110.355 34.6657 110.36 33.1516L110.362 32.2706L113.965 32.2809L113.952 36.6764L114.716 36.6786L114.593 38.6068L113.966 38.605L113.97 37.3421L109.878 37.3304L109.737 38.5928L109.12 38.5911ZM110.477 36.6664L113.198 36.6742L113.209 32.9444L111.085 32.9383L111.083 33.6432C111.079 34.9158 110.877 35.9236 110.477 36.6664Z" fill="white"/>
</svg>
