<svg viewBox="0 0 168 64" xmlns="http://www.w3.org/2000/svg">
<path d="M0 20.423V40.846L21.4441 21.9547V0L0 20.423Z" fill="white"/>
<path d="M42.8885 22.4655V40.8462L21.4443 21.4443H42.8885V22.4655Z" fill="white"/>
<path d="M42.8887 40.8462L21.4445 60.3017L21.4445 21.3906L42.8887 40.8462Z" fill="#FEB938"/>
<path d="M9.81989e-07 40.8462L21.4441 60.3017L21.4441 21.3906L9.81989e-07 40.8462Z" fill="#FF970A"/>
<path d="M58.9402 26.4202L58.9302 29.9045L64.2138 29.9197C66.4414 29.9261 68.1629 30.4928 69.3782 31.6196C70.6127 32.7275 71.2271 34.2334 71.2217 36.1374C71.2159 38.1556 70.5545 39.715 69.2376 40.8155C67.9207 41.9161 66.0912 42.463 63.7493 42.4563L54.496 42.4297L54.5534 22.4378L69.89 22.4819L69.8786 26.4517L58.9402 26.4202ZM63.7463 33.5741L58.9197 33.5602L58.9056 38.4725L63.7607 38.4864C65.798 38.4923 66.8191 37.6479 66.8239 35.9534C66.8285 34.3731 65.8026 33.58 63.7463 33.5741ZM74.8281 42.4881L74.8855 22.4962L83.0537 22.5197C85.4146 22.5265 87.2787 23.1697 88.6459 24.4493C90.0131 25.7289 90.6937 27.4159 90.6877 29.5103C90.6813 31.738 89.9147 33.4684 88.3879 34.7016C86.8612 35.9158 84.9269 36.5195 82.585 36.5128L79.2435 36.5032L79.2263 42.5007L74.8281 42.4881ZM79.2548 32.5905L82.7391 32.6005C83.8244 32.6036 84.6725 32.3204 85.2834 31.751C85.9133 31.1816 86.2296 30.44 86.2322 29.526C86.235 28.555 85.923 27.8116 85.2962 27.2957C84.6694 26.7607 83.7943 26.4917 82.671 26.4884L79.2723 26.4787L79.2548 32.5905ZM111.184 22.6005L111.127 42.5924L106.786 42.5799L106.823 29.471L98.0463 42.5548L93.9052 42.5429L93.9626 22.551L98.3037 22.5635L98.266 35.6725L107.1 22.5888L111.184 22.6005ZM113.813 46.7699L113.837 38.6304L115.722 38.6358C116.507 36.8292 117.075 34.9173 117.423 32.9001C117.772 30.8829 117.951 28.2368 117.96 24.9619L117.967 22.62L132.504 22.6618L132.458 38.6839L134.857 38.6908L134.262 46.8287L130.578 46.8181L130.59 42.6484L118.081 42.6124L117.783 46.7813L113.813 46.7699ZM128.094 26.619L122.182 26.602L122.176 28.6297C122.165 32.3996 121.556 35.7394 120.348 38.6491L128.059 38.6712L128.094 26.619ZM153.681 42.7147L149.312 42.7022L149.327 37.39L146.679 34.5264L141.029 42.6784L135.774 42.6633L143.718 31.3477L136.117 22.6722L141.344 22.6872L149.342 32.0494L149.369 22.7103L153.739 22.7228L153.712 32.0619L161.764 22.7459L166.991 22.7609L159.34 31.3926L167.219 42.7536L161.964 42.7385L156.332 34.5542L153.697 37.4026L153.681 42.7147Z" fill="white"/>
<path d="M52.9791 57.017L52.9936 51.9559L53.7474 51.958L53.7359 55.9619L56.7528 51.9667L57.487 51.9688L57.4724 57.0299L56.7186 57.0278L56.7301 53.0239L53.7035 57.0191L52.9791 57.017ZM59.1548 57.0348L59.1694 51.9736L59.9232 51.9758L59.9169 54.1588L62.8342 54.1672L62.8404 51.9842L63.5942 51.9863L63.5797 57.0475L62.8259 57.0453L62.8323 54.8329L59.915 54.8245L59.9086 57.037L59.1548 57.0348ZM65.2637 57.0523L65.2783 51.9912L67.7256 51.9982C68.2282 51.9997 68.6292 52.115 68.9288 52.3443C69.2283 52.5736 69.3775 52.8808 69.3764 53.2658C69.3749 53.8075 69.0931 54.195 68.5312 54.4283C69.2746 54.6328 69.6454 55.0515 69.6436 55.6846C69.6424 56.1088 69.475 56.4444 69.1414 56.6915C68.8079 56.9385 68.3605 57.0612 67.7992 57.0596L65.2637 57.0523ZM66.0194 56.4084L67.7032 56.4132C68.0621 56.4143 68.3462 56.34 68.5555 56.1905C68.7648 56.041 68.8698 55.8325 68.8705 55.5649C68.8713 55.3169 68.7609 55.1241 68.5394 54.9864C68.3244 54.8487 68.0146 54.7793 67.61 54.7781L66.0241 54.7736L66.0194 56.4084ZM66.0258 54.1666L67.5823 54.1711C67.8956 54.172 68.1438 54.1042 68.3269 53.9676C68.5166 53.8246 68.6118 53.6226 68.6126 53.3615C68.6132 53.1461 68.5256 52.9729 68.3497 52.8419C68.1739 52.7109 67.9261 52.6449 67.6063 52.644L66.0302 52.6395L66.0258 54.1666ZM73.2118 57.1927C72.5005 57.1906 71.9007 56.9442 71.4127 56.4533C70.9311 55.9559 70.6915 55.3189 70.6937 54.5422C70.6959 53.8048 70.9293 53.1822 71.3942 52.6744C71.859 52.1602 72.4373 51.9041 73.1291 51.9061C73.8535 51.9081 74.4271 52.1643 74.8499 52.6746C75.2726 53.1849 75.4829 53.8251 75.4807 54.5952C75.4804 54.6931 75.4769 54.7811 75.4701 54.8594L71.4564 54.8479C71.5072 55.3636 71.6985 55.7754 72.0305 56.083C72.369 56.3842 72.7699 56.5355 73.2333 56.5368C73.8402 56.5386 74.3728 56.3019 74.831 55.8268L75.2997 56.2491C74.7301 56.8805 74.0341 57.195 73.2118 57.1927ZM71.4582 54.241L74.7181 54.2503C74.6738 53.7607 74.5118 53.3556 74.2321 53.035C73.9589 52.7079 73.5841 52.5437 73.1077 52.5423C72.677 52.5411 72.3078 52.6999 72.0001 53.0188C71.6925 53.3377 71.5118 53.7451 71.4582 54.241ZM79.0737 57.2095C78.3428 57.2074 77.7268 56.9478 77.2257 56.4308C76.7312 55.9073 76.485 55.2833 76.4871 54.5589C76.4892 53.8345 76.739 53.2152 77.2365 52.701C77.7405 52.1804 78.358 51.9211 79.0889 51.9232C79.8721 51.9254 80.5467 52.2276 81.1128 52.8296L80.6316 53.3373C80.1631 52.84 79.645 52.5905 79.0772 52.5888C78.5682 52.5874 78.1369 52.7787 77.7834 53.1627C77.4364 53.5402 77.2621 54.0064 77.2605 54.5611C77.2589 55.1093 77.4338 55.5765 77.7851 55.9625C78.143 56.3421 78.5862 56.5326 79.1148 56.5341C79.6565 56.5357 80.1663 56.2826 80.6442 55.775L81.1421 56.2365C80.5529 56.8874 79.8634 57.2118 79.0737 57.2095ZM83.6094 57.1051L83.6221 52.7096L81.811 52.7044L81.8129 52.0387L86.1986 52.0513L86.1967 52.717L84.3856 52.7118L84.373 57.1073L83.6094 57.1051ZM87.2805 57.1156L87.295 52.0545L88.0488 52.0566L88.0373 56.0605L91.0542 52.0653L91.7884 52.0674L91.7739 57.1285L91.0201 57.1264L91.0316 53.1225L88.0049 57.1177L87.2805 57.1156ZM97.8188 58.4088L97.8224 57.1459L93.4563 57.1334L93.4708 52.0722L94.2246 52.0744L94.212 56.4699L97.0509 56.478L97.0636 52.0825L97.8174 52.0847L97.8047 56.4802L98.5683 56.4824L98.4453 58.4106L97.8188 58.4088ZM99.6034 57.151L99.6179 52.0899L100.372 52.092L100.36 56.0959L103.377 52.1007L104.111 52.1028L104.097 57.164L103.343 57.1618L103.354 53.1579L100.328 57.1531L99.6034 57.151ZM109.981 56.525C109.47 57.0391 108.84 57.2951 108.089 57.2929C107.339 57.2907 106.713 57.0312 106.212 56.5141C105.717 55.9971 105.471 55.3731 105.473 54.6422C105.475 53.9178 105.728 53.2985 106.232 52.7844C106.743 52.2637 107.373 52.0045 108.124 52.0066C108.874 52.0088 109.5 52.2684 110.001 52.7854C110.502 53.3024 110.752 53.9264 110.75 54.6574C110.748 55.3818 110.491 56.0043 109.981 56.525ZM108.111 56.6175C108.652 56.619 109.097 56.4311 109.444 56.0535C109.797 55.676 109.975 55.2099 109.976 54.6551C109.978 54.1069 109.797 53.6398 109.432 53.2537C109.074 52.8676 108.631 52.6738 108.102 52.6723C107.561 52.6707 107.116 52.862 106.769 53.246C106.422 53.6236 106.248 54.0897 106.247 54.6444C106.245 55.1926 106.423 55.6598 106.781 56.0459C107.139 56.4254 107.582 56.616 108.111 56.6175ZM112.108 57.187L112.122 52.1258L112.876 52.128L112.87 54.311L115.787 54.3194L115.794 52.1364L116.547 52.1385L116.533 57.1997L115.779 57.1975L115.785 54.9851L112.868 54.9767L112.862 57.1891L112.108 57.187ZM118.217 57.2045L118.231 52.1434L118.985 52.1455L118.979 54.3286L121.896 54.337L121.902 52.1539L122.656 52.1561L122.642 57.2173L121.888 57.2151L121.894 55.0027L118.977 54.9943L118.971 57.2067L118.217 57.2045ZM124.326 57.2221L124.34 52.1609L125.094 52.1631L125.089 54.0623L126.439 54.0661C127.027 54.0678 127.506 54.1965 127.877 54.4521C128.249 54.7011 128.434 55.0802 128.432 55.5892C128.431 56.0918 128.257 56.4926 127.91 56.7919C127.563 57.0846 127.099 57.2301 126.519 57.2284L124.326 57.2221ZM125.081 56.5586L126.452 56.5625C126.837 56.5636 127.134 56.4829 127.343 56.3203C127.559 56.1578 127.668 55.9199 127.669 55.6066C127.669 55.3195 127.559 55.1005 127.338 54.9498C127.123 54.7925 126.819 54.7133 126.428 54.7122L125.087 54.7084L125.081 56.5586ZM129.338 57.2365L129.352 52.1753L130.106 52.1775L130.092 57.2387L129.338 57.2365ZM131.773 57.2435L131.787 52.1823L132.541 52.1845L132.53 56.1884L135.547 52.1931L136.281 52.1952L136.266 57.2564L135.513 57.2542L135.524 53.2503L132.497 57.2456L131.773 57.2435ZM134.923 51.1341C134.675 51.3553 134.371 51.4653 134.012 51.4643C133.653 51.4633 133.346 51.3514 133.093 51.1288C132.845 50.9062 132.693 50.6186 132.635 50.266L133.154 50.1598C133.283 50.617 133.57 50.8463 134.014 50.8476C134.457 50.8488 134.745 50.6212 134.877 50.1648L135.396 50.2739C135.336 50.6262 135.178 50.9129 134.923 51.1341ZM143.924 58.8447L143.929 56.8673C143.524 57.212 143.102 57.3837 142.665 57.3825C142.052 57.3807 141.556 57.1443 141.179 56.6734C140.802 56.1959 140.614 55.5459 140.617 54.7236C140.619 53.9144 140.81 53.2753 141.19 52.8065C141.57 52.3377 142.067 52.1042 142.68 52.106C143.117 52.1072 143.538 52.2912 143.941 52.6578L143.948 50.4258L144.711 50.428L144.705 52.66C145.111 52.2957 145.532 52.1142 145.969 52.1154C146.589 52.1172 147.088 52.3568 147.465 52.8343C147.842 53.3053 148.03 53.9487 148.027 54.7645C148.025 55.5738 147.831 56.2161 147.444 56.6914C147.064 57.1602 146.568 57.3937 145.954 57.3919C145.674 57.3911 145.442 57.348 145.26 57.2627C145.084 57.1708 144.895 57.0397 144.693 56.8695L144.687 58.8469L143.924 58.8447ZM142.824 56.7173C143.248 56.7185 143.617 56.5531 143.931 56.2212L143.94 53.2843C143.627 52.9506 143.259 52.7831 142.835 52.7819C142.365 52.7805 142.009 52.9557 141.766 53.3074C141.524 53.6592 141.402 54.145 141.4 54.765C141.396 56.0638 141.871 56.7145 142.824 56.7173ZM145.809 56.7258C146.762 56.7286 147.241 56.074 147.244 54.7623C147.246 54.1488 147.127 53.6687 146.886 53.3222C146.646 52.969 146.291 52.7918 145.821 52.7905C145.396 52.7892 145.024 52.9546 144.703 53.2865L144.695 56.2234C145.014 56.5571 145.385 56.7246 145.809 56.7258ZM153.632 56.6504C153.121 57.1645 152.491 57.4205 151.74 57.4184C150.99 57.4162 150.364 57.1566 149.863 56.6396C149.368 56.1226 149.122 55.4986 149.124 54.7677C149.126 54.0432 149.379 53.424 149.883 52.9098C150.394 52.3892 151.025 52.1299 151.775 52.1321C152.526 52.1343 153.151 52.3938 153.652 52.9109C154.153 53.4279 154.403 54.0519 154.401 54.7828C154.399 55.5072 154.142 56.1298 153.632 56.6504ZM151.762 56.7429C152.304 56.7445 152.748 56.5565 153.095 56.179C153.448 55.8015 153.626 55.3353 153.627 54.7806C153.629 54.2324 153.448 53.7652 153.083 53.3791C152.725 52.993 152.282 52.7992 151.754 52.7977C151.212 52.7962 150.768 52.9874 150.421 53.3715C150.074 53.749 149.899 54.2151 149.898 54.7699C149.896 55.3181 150.074 55.7852 150.432 56.1713C150.79 56.5509 151.233 56.7414 151.762 56.7429ZM155.759 57.3124L155.774 52.2513L156.527 52.2534L156.521 54.4365L159.438 54.4449L159.445 52.2618L160.198 52.264L160.184 57.3252L159.43 57.323L159.436 55.1106L156.519 55.1022L156.513 57.3146L155.759 57.3124ZM161.12 58.5907L161.126 56.6622L161.674 56.6637C162.127 55.8362 162.355 54.6654 162.36 53.1513L162.362 52.2702L165.965 52.2806L165.952 56.676L166.716 56.6782L166.593 58.6064L165.966 58.6046L165.97 57.3418L161.878 57.33L161.737 58.5925L161.12 58.5907ZM162.477 56.6661L165.198 56.6739L165.209 52.9441L163.085 52.938L163.083 53.6428C163.079 54.9154 162.877 55.9232 162.477 56.6661Z" fill="white"/>
</svg>
