<?xml version="1.0" encoding="utf-8"?><svg viewBox="0 0 48 61" xmlns="http://www.w3.org/2000/svg" xmlns:xlink="http://www.w3.org/1999/xlink"><style>:root>svg{display:none}:root>svg:target{display:block}</style><svg viewBox="0 0 13 7" fill="none" id="arrow" xmlns="http://www.w3.org/2000/svg"><path d="M1 1l5.5 5L12 1" stroke="#FF970A" stroke-width="1.5" stroke-linecap="round" stroke-linejoin="round"/></svg><svg viewBox="0 0 47 27" id="arrow-big" xmlns="http://www.w3.org/2000/svg"><path d="M.821 11.796v3.409h39.03l-9.985 9.374L32.444 27l14.377-13.5L32.444 0l-2.578 2.42 9.984 9.376H.821z"/></svg><svg viewBox="0 0 20 20" id="close-yellow" xmlns="http://www.w3.org/2000/svg"><path fill-rule="evenodd" clip-rule="evenodd" d="M2.275.396a1.32 1.32 0 00-1.885 0 1.364 1.364 0 000 1.91l7.776 7.885-7.4 7.503a1.364 1.364 0 000 1.91 1.32 1.32 0 001.885 0l7.4-7.503 7.298 7.401a1.32 1.32 0 001.884 0c.52-.527.52-1.383 0-1.91l-7.299-7.401 7.676-7.783c.52-.527.52-1.383 0-1.91a1.32 1.32 0 00-1.885 0L10.05 8.28 2.275.396z" fill="#FF9519"/></svg><svg viewBox="0 0 25 25" id="instagram" xmlns="http://www.w3.org/2000/svg"><path fill-rule="evenodd" clip-rule="evenodd" d="M20.628 5.983a1.43 1.43 0 11-2.859 0 1.43 1.43 0 012.859 0zM12.841 16.31a3.97 3.97 0 110-7.94 3.97 3.97 0 010 7.94zm0-10.087a6.116 6.116 0 100 12.233 6.116 6.116 0 000-12.233zm0-3.648c3.18 0 3.557.012 4.813.07 1.16.052 1.792.246 2.211.41.556.216.953.474 1.37.89.417.417.675.814.891 1.37.163.42.357 1.05.41 2.212.057 1.256.07 1.633.07 4.813 0 3.18-.013 3.557-.07 4.813-.053 1.161-.247 1.792-.41 2.212a3.691 3.691 0 01-.891 1.37 3.688 3.688 0 01-1.37.89c-.42.163-1.05.357-2.211.41-1.256.058-1.633.07-4.813.07-3.18 0-3.558-.012-4.813-.07-1.162-.053-1.793-.246-2.212-.41a3.691 3.691 0 01-1.37-.89 3.69 3.69 0 01-.89-1.37c-.164-.42-.358-1.05-.411-2.212-.057-1.256-.07-1.633-.07-4.813 0-3.18.013-3.557.07-4.813.053-1.161.247-1.792.41-2.212a3.69 3.69 0 01.891-1.37 3.688 3.688 0 011.37-.89c.42-.164 1.05-.358 2.212-.41 1.256-.058 1.632-.07 4.813-.07zm0-2.146C9.606.43 9.2.443 7.93.5c-1.268.058-2.134.26-2.891.554a5.837 5.837 0 00-2.11 1.374 5.837 5.837 0 00-1.374 2.11c-.294.757-.496 1.623-.554 2.89C.943 8.7.93 9.107.93 12.342c0 3.234.013 3.64.071 4.91.058 1.268.26 2.134.554 2.892a5.836 5.836 0 001.374 2.11 5.84 5.84 0 002.11 1.373c.757.295 1.623.496 2.89.554 1.271.058 1.677.072 4.912.072 3.234 0 3.64-.014 4.91-.072 1.268-.058 2.134-.26 2.892-.554a5.839 5.839 0 002.11-1.374 5.839 5.839 0 001.373-2.11c.295-.757.496-1.623.554-2.89.058-1.27.072-1.677.072-4.911 0-3.235-.014-3.64-.072-4.911-.058-1.268-.26-2.134-.554-2.891a5.84 5.84 0 00-1.374-2.11 5.839 5.839 0 00-2.11-1.374c-.757-.294-1.623-.496-2.89-.554C16.482.443 16.075.43 12.84.43z"/></svg><svg viewBox="0 0 37 15" id="menu" xmlns="http://www.w3.org/2000/svg"><path d="M2 2h33m0 11H13.846" stroke="#fff" stroke-width="2.5" stroke-linecap="round"/></svg><svg viewBox="0 0 28 21" id="mute" xmlns="http://www.w3.org/2000/svg"><path d="M12.816 2.674c0-1.024-1.208-1.569-1.976-.892L6.589 5.53a1.19 1.19 0 01-.787.297H2.19A1.19 1.19 0 001 7.017v6.302c0 .657.533 1.19 1.19 1.19h3.612c.29 0 .57.105.787.297l4.25 3.748c.769.677 1.977.132 1.977-.892V2.674zM26.54 5.948l-8.44 8.44M18.1 5.948l8.44 8.44" stroke="#4C4C4C" stroke-width="1.784" stroke-linecap="round"/></svg><svg viewBox="0 0 23 23" fill="none" id="play" xmlns="http://www.w3.org/2000/svg"><path d="M11.305 21.61c5.69 0 10.304-4.614 10.304-10.305S16.996 1 11.305 1 1 5.614 1 11.305c0 5.69 4.614 10.304 10.305 10.304z" stroke="#4C4C4C" stroke-width="1.784" stroke-linecap="round"/><path d="M9.244 8.117a.5.5 0 01.777-.416l4.782 3.188a.5.5 0 010 .832l-4.782 3.188a.5.5 0 01-.777-.417V8.117z" stroke="#4C4C4C" stroke-width="1.784" stroke-linecap="round"/></svg><svg viewBox="0 0 48 61" id="play-big" xmlns="http://www.w3.org/2000/svg"><path d="M45.41 26.751c2.667 1.788 2.667 5.71 0 7.498L7.03 59.993C4.029 62.005 0 59.856 0 56.244V4.756c0-3.612 4.03-5.761 7.029-3.75L45.41 26.752z" fill="#FAFAFA"/></svg><svg viewBox="0 0 48 61" id="play-white" xmlns="http://www.w3.org/2000/svg"><path d="M45.41 26.751c2.667 1.788 2.667 5.71 0 7.498L7.03 59.993C4.029 62.005 0 59.856 0 56.244V4.756c0-3.612 4.03-5.761 7.029-3.75L45.41 26.752z" fill="#FAFAFA"/></svg><svg viewBox="0 0 21 21" id="stop" xmlns="http://www.w3.org/2000/svg"><path d="M6.163 1.374v3.091a2.06 2.06 0 01-2.06 2.061H1.01m18.548 0h-3.091a2.06 2.06 0 01-2.061-2.06V1.373m0 18.548v-3.091a2.06 2.06 0 012.06-2.061h3.092m-18.548 0h3.091a2.06 2.06 0 012.061 2.06v3.092" stroke="#4C4C4C" stroke-width="1.784" stroke-linecap="round"/></svg><svg viewBox="0 0 29 23" id="telegram" xmlns="http://www.w3.org/2000/svg"><path d="M11.463 14.841l10.128 7.16c1.05.65 1.95.289 2.25-1.013L27.968 2.33c.375-1.591-.675-2.314-1.8-1.808L2.084 9.489c-1.575.579-1.575 1.52-.3 1.88l6.227 1.881L22.266 4.5c.675-.362 1.275-.217.825.289"/></svg><svg viewBox="0 0 26 15" id="vk" xmlns="http://www.w3.org/2000/svg"><path d="M13.811 14.33c.332-.066.929-.197.929-.981 0 0-.066-1.96.862-2.222.929-.261 2.123 1.895 3.383 2.745.929.588 1.658.523 1.658.523l3.383-.066s1.725-.13.929-1.503c-.066-.13-.597-.98-2.587-2.744-2.056-1.96-1.725-1.634.73-4.967 1.525-2.025 2.189-3.267 1.99-3.724C24.822.933 23.76.998 23.76.998H19.98c-.398 0-.597.066-.796.393 0 0-.597 1.633-1.393 2.94-1.658 2.81-2.322 2.94-2.653 2.745-.597-.327-.464-1.569-.464-2.418 0-2.94.464-3.986-.863-4.248C12.95.28 9.898.15 8.97.606c-.464.262-.73.72-.53.785.198 0 .795.065 1.127.457.53.85.597 4.901-.133 5.293-.995.719-3.515-4.051-4.112-5.62-.133-.392-.332-.457-.796-.588H.876c-.398 0-.994.065-.73.85 1.792 3.659 5.506 12.612 12.206 12.546h1.46z"/></svg><svg viewBox="0 0 27 20" id="youtube" xmlns="http://www.w3.org/2000/svg"><path fill-rule="evenodd" clip-rule="evenodd" d="M26.148 4.514s-.255-1.843-1.038-2.655C24.116.793 23.002.788 22.49.726c-3.657-.27-9.144-.27-9.144-.27h-.011s-5.486 0-9.144.27c-.511.062-1.624.067-2.62 1.133C.79 2.67.536 4.514.536 4.514S.273 6.68.273 8.844v2.03c0 2.166.262 4.33.262 4.33S.79 17.05 1.573 17.86c.995 1.066 2.3 1.033 2.882 1.144 2.091.206 8.887.27 8.887.27s5.492-.009 9.149-.28c.51-.063 1.625-.068 2.619-1.134.783-.811 1.038-2.655 1.038-2.655s.262-2.165.262-4.33v-2.03c0-2.165-.262-4.33-.262-4.33zm-15.505 8.82V5.818l7.06 3.772-7.06 3.745z"/></svg></svg>