<svg viewBox="0 0 20 20" xmlns="http://www.w3.org/2000/svg">
<path fill-rule="evenodd" clip-rule="evenodd" d="M2.27457 0.395713C1.75423 -0.131904 0.910593 -0.131904 0.390255 0.395713C-0.130084 0.923331 -0.130085 1.77877 0.390254 2.30639L8.16586 10.1908L0.766512 17.6936C0.246173 18.2212 0.246173 19.0767 0.766512 19.6043C1.28685 20.1319 2.13049 20.1319 2.65082 19.6043L10.0502 12.1014L17.3491 19.5024C17.8694 20.0301 18.7131 20.0301 19.2334 19.5024C19.7537 18.9748 19.7537 18.1194 19.2334 17.5918L11.9345 10.1908L19.6097 2.40824C20.13 1.88062 20.13 1.02518 19.6097 0.497562C19.0893 -0.0300554 18.2457 -0.0300563 17.7253 0.497561L10.0502 8.28009L2.27457 0.395713Z" fill="#FF9519"/>
</svg>
