<svg viewBox="0 0 25 25" xmlns="http://www.w3.org/2000/svg">
<path fill-rule="evenodd" clip-rule="evenodd" d="M20.628 5.98262C20.628 6.77209 19.988 7.41193 19.1987 7.41193C18.4094 7.41193 17.7694 6.77209 17.7694 5.98262C17.7694 5.19314 18.4094 4.5533 19.1987 4.5533C19.9882 4.5533 20.628 5.19314 20.628 5.98262ZM12.8407 16.3109C10.6479 16.3109 8.8704 14.5334 8.8704 12.3407C8.8704 10.1479 10.6479 8.3704 12.8407 8.3704C15.0334 8.3704 16.8109 10.1479 16.8109 12.3407C16.8109 14.5334 15.0334 16.3109 12.8407 16.3109ZM12.8407 6.22419C9.46259 6.22419 6.72419 8.96259 6.72419 12.3407C6.72419 15.7187 9.46259 18.4571 12.8407 18.4571C16.2187 18.4571 18.9571 15.7187 18.9571 12.3407C18.9571 8.96259 16.2187 6.22419 12.8407 6.22419ZM12.8407 2.5759C16.0211 2.5759 16.3978 2.58799 17.6536 2.64531C18.8149 2.69835 19.4457 2.89228 19.8653 3.0555C20.4212 3.27157 20.818 3.5297 21.2349 3.94659C21.6518 4.36329 21.9099 4.76007 22.126 5.31616C22.289 5.73584 22.4831 6.36656 22.5362 7.52788C22.5935 8.78393 22.6056 9.16061 22.6056 12.341C22.6056 15.5214 22.5935 15.8981 22.5362 17.154C22.4831 18.3153 22.2892 18.946 22.126 19.3657C21.9099 19.9216 21.6518 20.3184 21.2349 20.7353C20.8182 21.1522 20.4214 21.4103 19.8653 21.6264C19.4457 21.7894 18.8149 21.9835 17.6536 22.0366C16.3978 22.0939 16.0211 22.106 12.8407 22.106C9.66006 22.106 9.28337 22.0939 8.02751 22.0366C6.86619 21.9835 6.23547 21.7896 5.81579 21.6264C5.25988 21.4103 4.8631 21.1522 4.44622 20.7353C4.02952 20.3186 3.7712 19.9218 3.55513 19.3657C3.39209 18.946 3.19798 18.3153 3.14494 17.154C3.08762 15.8979 3.07552 15.5213 3.07552 12.341C3.07552 9.16061 3.08762 8.78393 3.14494 7.52788C3.19798 6.36656 3.39191 5.73584 3.55513 5.31616C3.7712 4.76026 4.02933 4.36347 4.44622 3.94659C4.86291 3.5297 5.2597 3.27157 5.81579 3.0555C6.23547 2.89247 6.86619 2.69835 8.02751 2.64531C9.28356 2.58799 9.66024 2.5759 12.8407 2.5759ZM12.8407 0.429688C9.6059 0.429688 9.20018 0.44346 7.9298 0.501339C6.66203 0.559219 5.79606 0.760589 5.0386 1.05501C4.25527 1.3593 3.59104 1.76669 2.92887 2.42887C2.26669 3.09104 1.8593 3.75527 1.55501 4.5386C1.26059 5.29625 1.05922 6.16203 1.00134 7.4298C0.94346 8.70018 0.929687 9.1059 0.929687 12.3407C0.929687 15.5754 0.94346 15.9811 1.00134 17.2515C1.05922 18.5193 1.26059 19.3851 1.55501 20.1427C1.8593 20.926 2.26669 21.5903 2.92887 22.2524C3.59104 22.9146 4.25527 23.3218 5.0386 23.6263C5.79625 23.9207 6.66203 24.1221 7.9298 24.18C9.20018 24.2379 9.6059 24.2516 12.8407 24.2516C16.0754 24.2516 16.4811 24.2379 17.7515 24.18C19.0193 24.1221 19.8851 23.9207 20.6427 23.6263C21.426 23.3218 22.0903 22.9146 22.7524 22.2524C23.4146 21.5903 23.8218 20.926 24.1263 20.1427C24.4207 19.3851 24.6221 18.5193 24.68 17.2515C24.7379 15.9811 24.7516 15.5754 24.7516 12.3407C24.7516 9.1059 24.7379 8.70018 24.68 7.4298C24.6221 6.16203 24.4207 5.29625 24.1263 4.5386C23.8218 3.75527 23.4146 3.09104 22.7524 2.42887C22.0903 1.76669 21.426 1.35949 20.6427 1.05501C19.8851 0.760589 19.0193 0.559219 17.7515 0.501339C16.4811 0.44346 16.0754 0.429688 12.8407 0.429688Z" fill="black"/>
</svg>
