<svg viewBox="0 0 21 21" xmlns="http://www.w3.org/2000/svg">
<path d="M6.16304 1.37402V4.4654C6.16304 5.01199 5.94591 5.53619 5.55941 5.92269C5.17291 6.30919 4.64871 6.52632 4.10212 6.52632H1.01074M19.559 6.52632H16.4676C15.921 6.52632 15.3968 6.30919 15.0103 5.92269C14.6238 5.53619 14.4067 5.01199 14.4067 4.4654V1.37402M14.4067 19.9223V16.8309C14.4067 16.2843 14.6238 15.7601 15.0103 15.3736C15.3968 14.9871 15.921 14.77 16.4676 14.77H19.559M1.01074 14.77H4.10212C4.64871 14.77 5.17291 14.9871 5.55941 15.3736C5.94591 15.7601 6.16304 16.2843 6.16304 16.8309V19.9223" stroke="#4C4C4C" stroke-width="1.78422" stroke-linecap="round"/>
</svg>
