<svg viewBox="0 0 26 15" xmlns="http://www.w3.org/2000/svg">
<path d="M13.8112 14.3292C14.1428 14.2638 14.7398 14.1331 14.7398 13.349C14.7398 13.349 14.6735 11.3886 15.6021 11.1272C16.5308 10.8658 17.7247 13.0223 18.985 13.8718C19.9137 14.4599 20.6433 14.3945 20.6433 14.3945L24.0262 14.3292C24.0262 14.3292 25.7509 14.1985 24.9549 12.8262C24.8885 12.6955 24.3579 11.846 22.3679 10.0816C20.3117 8.12125 20.6433 8.44798 23.0976 5.1153C24.6232 3.08955 25.2865 1.84796 25.0875 1.39053C24.8222 0.933103 23.7609 0.998449 23.7609 0.998449L19.98 0.998449C19.582 0.998449 19.383 1.0638 19.184 1.39053C19.184 1.39053 18.587 3.0242 17.7911 4.33113C16.1328 7.14104 15.4695 7.27174 15.1378 7.0757C14.5408 6.74896 14.6735 5.50738 14.6735 4.65787C14.6735 1.71726 15.1378 0.671715 13.8112 0.410328C12.9488 0.279635 9.89759 0.148941 8.96895 0.606369C8.50462 0.867756 8.2393 1.32518 8.43829 1.39053C8.63729 1.39053 9.23427 1.45588 9.56593 1.84796C10.0966 2.69747 10.1629 6.74896 9.43327 7.14105C8.43829 7.85986 5.91769 3.08955 5.3207 1.52122C5.18804 1.12914 4.98904 1.0638 4.52472 0.933103L0.87648 0.933103C0.47849 0.933103 -0.118495 0.998449 0.146832 1.78261C1.93779 5.44203 5.65236 14.3945 12.3519 14.3292H13.8112Z" fill="black"/>
</svg>
