<svg viewBox="0 0 27 20" xmlns="http://www.w3.org/2000/svg">
<path fill-rule="evenodd" clip-rule="evenodd" d="M26.1484 4.51423C26.1484 4.51423 25.8928 2.67052 25.1095 1.85877C24.1155 0.79277 23.0015 0.787789 22.491 0.725937C18.8335 0.455078 13.3473 0.455078 13.3473 0.455078H13.3359C13.3359 0.455078 7.84972 0.455078 4.19226 0.725937C3.68097 0.787789 2.56772 0.79277 1.5729 1.85877C0.789631 2.67073 0.534801 4.51423 0.534801 4.51423C0.534801 4.51423 0.273437 6.67986 0.273437 8.84445L0.273437 10.8745C0.273437 13.04 0.534801 15.2048 0.534801 15.2048C0.534801 15.2048 0.789631 17.0485 1.5729 17.8602C2.56772 18.9262 3.87372 18.8928 4.45526 19.0041C6.54616 19.2097 13.3416 19.2733 13.3416 19.2733C13.3416 19.2733 18.8335 19.265 22.491 18.9941C23.0015 18.9314 24.1155 18.9264 25.1095 17.8604C25.8928 17.0485 26.1484 15.205 26.1484 15.205C26.1484 15.205 26.4098 13.0402 26.4098 10.8745L26.4098 8.84445C26.4098 6.67986 26.1484 4.51423 26.1484 4.51423ZM10.643 13.3345L10.6422 5.81705L17.7039 9.58874L10.643 13.3345Z"/>
</svg>
